# xmcd
#
# Track frame offsets: 
#        150
#        16361
#        34823
#        57314
#        69887
#        88575
#        106384
#        133315
#        138975
#        154229
#        173788
#        192719
#        208865
#        223202
#        247606
#        261317
#        270403
#
# Disc length: 3724 seconds
#
# Revision: 1
# Processed by: cddbd v1.5.2PL0 Copyright (c) Steve Scherf et al.
# Submitted via: ExactAudioCopy v1.3
#
DISCID=fe0e8a11
DTITLE=Archie Lee Hooker and The Coast To Coast Blues Band - Chilling 
DYEAR=2018
DGENRE=Blues
TTITLE0=90 Days
TTITLE1=Love Ain't No Play Thing
TTITLE2=Moaning The Blues
TTITLE3=Don't Tell Mama
TTITLE4=Big Ass Fun
TTITLE5=Found A Good One
TTITLE6=Tennessee Blues
TTITLE7=The Roots Of Our Family
TTITLE8=Chilling
TTITLE9=You Don't Love Me No More
TTITLE10=Blues Shoes
TTITLE11=I've Got Reasons
TTITLE12=Don't Forget Where You Game From
TTITLE13=Your Eyes
TTITLE14=Bright Lights Big City
TTITLE15=Jockey Blues
TTITLE16=Thank You John
EXTD=
EXTT0=
EXTT1=
EXTT2=
EXTT3=
EXTT4=
EXTT5=
EXTT6=
EXTT7=
EXTT8=
EXTT9=
EXTT10=
EXTT11=
EXTT12=
EXTT13=
EXTT14=
EXTT15=
EXTT16=
PLAYORDER=
